<?xml version="1.0" encoding="UTF-8"?>
<svg id="Layer_1" xmlns="http://www.w3.org/2000/svg" version="1.1" viewBox="0 0 414 414">
  <!-- Generator: Adobe Illustrator 30.0.0, SVG Export Plug-In . SVG Version: 2.1.1 Build 123)  -->
  <defs>
    <style>
      .st0 {
        fill: #fff;
      }

      .st1 {
        fill: #1caad9;
      }
    </style>
  </defs>
  <path class="st0" d="M207,14.27C100.28,14.27,13.8,100.78,13.8,207.46s86.49,193.19,193.2,193.19,193.22-86.5,193.22-193.19S313.73,14.27,207,14.27h0Z"/>
  <path class="st1" d="M207,0C92.68,0,0,92.68,0,207s92.68,207,207,207,207-92.68,207-207S321.37,0,207,0ZM189,330.18l-89.22-51.51v-103.93l89.22,48.26v107.18ZM204.9,198.49l-105.6-56,105.6-61,105.61,61-105.61,56ZM310.6,278.86l-88.91,51.34v-106.84l88.91-48v103.5Z"/>
</svg>